# xmcd CD database file
#
# Track frame offsets:
#	150
#	22944
#	39166
#	55991
#	77743
#	97933
#	117710
#	133690
#	154252
#	168553
#
# Disc length: 2450 seconds
#
# Revision: 3
# Processed by: cddbd v1.5.2PL0 Copyright (c) Steve Scherf et al.
# Submitted via: CDex 1.51
#
DISCID=7a09900a
DTITLE=Various Artist - STTW3186
DYEAR=1900
DGENRE=Blues
TTITLE0=Michael Jackson - Beat It
TTITLE1=Michael Jackson - Black Or White
TTITLE2=Michael Jackson - Got To Be There
TTITLE3=Michael Jackson - I Just Can't Stop Loving You
TTITLE4=Michael Jackson - One Day In Your Life
TTITLE5=Stevie Wonder - Lately
TTITLE6=Stevie Wonder - Yester Tou Yester Me Yesterday
TTITLE7=Stevie Wonder - He's Misstra Know It All
TTITLE8=Stevie Wonder - For Once In My life
TTITLE9=Stevie Wonder - Place In The Sun
EXTD=
EXTT0=
EXTT1=
EXTT2=
EXTT3=
EXTT4=
EXTT5=
EXTT6=
EXTT7=
EXTT8=
EXTT9=
PLAYORDER=
